####
#
# OBJ File Generated by Meshlab
#
####
# Object ellelltri.obj
#
# Vertices: 20
# Faces: 36
#
####
mtllib ellelltri.obj.mtl

vn -1.570796 -1.570796 -1.570796
v 0.000000 0.000000 0.000000
vn 0.000000 -3.141593 -3.141593
v 1.000000 0.000000 0.000000
vn -1.570796 -1.570796 -1.570796
v 2.000000 0.000000 0.000000
vn -3.141593 0.000000 -3.141593
v 0.000000 1.000000 0.000000
vn -1.570796 -1.570796 -4.712389
v 1.000000 1.000000 0.000000
vn -1.570796 -1.570796 -1.570796
v 2.000000 1.000000 0.000000
vn -1.570796 -1.570796 -1.570796
v 0.000000 2.000000 0.000000
vn -1.570796 -1.570796 -1.570796
v 1.000000 2.000000 0.000000
vn -1.570796 -1.570796 1.570796
v 0.000000 0.000000 1.000000
vn 0.000000 -3.141593 3.141593
v 1.000000 0.000000 1.000000
vn -1.570796 -1.570796 1.570796
v 2.000000 0.000000 1.000000
vn -4.712389 -1.570796 1.570796
v 0.000000 1.000000 1.000000
vn -3.141593 -3.141593 3.141593
v 1.000000 1.000000 1.000000
vn -1.570796 -1.570796 1.570796
v 2.000000 1.000000 1.000000
vn -3.141593 -3.141593 0.000000
v 0.000000 2.000000 1.000000
vn -3.141593 -3.141593 0.000000
v 1.000000 2.000000 1.000000
vn -1.570796 -1.570796 1.570796
v 0.000000 1.000000 3.000000
vn -1.570796 -1.570796 1.570796
v 1.000000 1.000000 3.000000
vn -1.570796 -1.570796 1.570796
v 0.000000 2.000000 3.000000
vn -1.570796 -1.570796 1.570796
v 1.000000 2.000000 3.000000
# 20 vertices, 0 vertices normals

usemtl material_0
f 1//1 4//4 5//5
f 1//1 5//5 2//2
f 2//2 5//5 6//6
f 2//2 6//6 3//3
f 4//4 7//7 8//8
f 4//4 8//8 5//5
f 9//9 10//10 13//13
f 9//9 13//13 12//12
f 10//10 11//11 14//14
f 10//10 14//14 13//13
f 17//17 18//18 20//20
f 17//17 20//20 19//19
f 1//1 9//9 12//12
f 1//1 12//12 4//4
f 4//4 12//12 15//15
f 4//4 15//15 7//7
f 12//12 17//17 19//19
f 12//12 19//19 15//15
f 5//5 13//13 16//16
f 5//5 16//16 8//8
f 13//13 18//18 20//20
f 13//13 20//20 16//16
f 3//3 11//11 14//14
f 3//3 14//14 6//6
f 1//1 2//2 10//10
f 1//1 10//10 9//9
f 2//2 3//3 11//11
f 2//2 11//11 10//10
f 12//12 13//13 18//18
f 12//12 18//18 17//17
f 5//5 6//6 14//14
f 5//5 14//14 13//13
f 7//7 8//8 16//16
f 7//7 16//16 15//15
f 15//15 16//16 20//20
f 15//15 20//20 19//19
# 36 faces, 0 coords texture

# End of File
